<?xml version="1.0" encoding="UTF-8"?>
<svg id="Capa_2" data-name="Capa 2" xmlns="http://www.w3.org/2000/svg" viewBox="0 0 319.88 229.72">
  <defs>
    <style>
      .cls-1 {
        fill: #e58632;
      }

      .cls-2 {
        font-size: 36.57px;
      }

      .cls-2, .cls-3 {
        fill: #e8dad2;
        font-family: Magneto-Bold, Magneto;
        font-weight: 700;
      }

      .cls-3 {
        font-size: 47.11px;
      }
    </style>
  </defs>
  <g id="Capa_1-2" data-name="Capa 1">
    <g>
      <path class="cls-1" d="M175.75,213.42l35.94,1.21,22.62.32c.98.01,2.9-1.28,3.39-2.03,2.45-3.77-5.73-8.19-10.73-8.55l-39.06-2.79c-6.53-.47-12.65-1.97-18.89-4.44-2.57-5.36-7.08-17.52.8-20.32,9.9-3.52,18.09-6.89,25.66-.1,3.93,3.52,8.1,4.03,12.89,2.27,8.66-3.18,14.07-.59,16.01-4.75,2.61-5.58-11.32-6.95-11.09-25.21.14-11.2-5.98-7.6-15.26-20.04-1.68-2.25-6.28-3.08-8.87-4.58-2.26-1.3-4.75-2.59-7.07-2.52-1.97.06-3.53,4.45-4.92,5.95-4.21,2.3-11.03,6.33-16.28,6.41-15.4.26-31.2-2.7-44.79-10.1-12-6.53-19.55-18.58-25.87-30.05l-6.73-12.22-2.16,1.91c-20.51-15.3-23.82-13.38-48.69-16.4-5.28-6.76-1.96-18.54,5.11-23.71l-4.62.59c3.58-6.23,7.17-11.82,12.28-16.18,11.45-9.78,27.84-9.01,39.1.72,4.34,3.76,8.87,6.49,14.52,8.51l-4.15-13.17C86.78-1.51,50.14-6.73,27.72,8.53l-4.62,3.15c-10.71,7.29-11.99,21.01-11.89,33.1l-2.92-2.71c-.68,15.36,7.74,22.97,10.98,35.71l-8.96,8.36C-3.74,99.25-.66,122.64,3.5,140.22c-.56,1.95.27,1.54,1.69.32,4.11,10.88,8.78,12.6,9.53,24.09.57.84,2.51,3.25,2.2,4.5l-2.71,10.79c-1.47,5.85-.15,9.56,3.2,14.14,5.97,8.17,5.27,20.51,14.93,20.99,16.76.83,10.96.4,23.06-1.94,1.89-.36,4.47-2.03,4.76-3.63.27-1.5-1.44-4.84-2.84-5.42l-10.12-4.21c-3.84-1.6-5.07-7.85-6.15-11.41-3.76-12.37,7.63-14.51,15.52-27.77,3.61,5.56,7.35,11.02,10.32,16.84,7.23,14.14,21.43,22.66,36.9,24.2,1.32.13,4.12,2.53,5.55,2.46l15.96-.7c1.98,2.17,4.17,3.9,5.59,4.98,3.57,2.72,6.79,6.89,12.5,6.7,10.51-.36,21.12-2.11,32.35-1.73Z"/>
      <path class="cls-1" d="M242.12,215.23l2.74-7.51c.84-2.31,2.45-4.15,4.13-4.11,2.17.05,6.06,2.01,4.81,4.1l-6.49,7.5,45.87.23c1.9-2.1,3.41-4.91,4.85-7.75l13.03-5.68c11.33-4.94,10.86-20.29,3.6-29.45-1.39-1.75-3.5-2.91-5.08-1.85,6.29,8.82,5.78,21.56-1.53,23.97-6.54,2.16-11.67-2.44-14.48-8.68-3.47-7.71-9.14-13.42-17.26-16.15l-13.39-4.49c-6.07-2.03-10.7-6.17-12.91-12.23s-6.52-9.21-11.39-12.59c-3.07-2.13-5.87-4.53-9.12-6.02l-4.57,7.35c-5.78,1.36-8.46,5.52-7.89,11.62.15,1.61-1.37,4.9-1.78,6.51-1.39,5.4,4.7,8.98,9.82,8.33,1.17-.15,4.2.03,4.39,1.06l.91,4.92c.38,2.05.76,6.35-.29,7.94-4.93,2.61-11.75-4.83-17.44-1.19-1.56,1-2.98,4.88-2.05,6.57,2.05,3.72,7.57.88,10.19,1.87l17.65,6.6c1.69,11.03-8.84,13.82-7.21,18.95,3.4.31,7.33.34,10.89.18Z"/>
      <text class="cls-3" transform="translate(24 215.43)"><tspan x="0" y="0">Cosmic </tspan></text>
      <text class="cls-2" transform="translate(215.61 213.39)"><tspan x="0" y="0">Tails</tspan></text>
    </g>
  </g>
</svg>